<?xml version="1.0" encoding="utf-8"?>
<!-- Generator: Adobe Illustrator 27.2.0, SVG Export Plug-In . SVG Version: 6.00 Build 0)  -->
<svg version="1.1" id="レイヤー_1" xmlns="http://www.w3.org/2000/svg" xmlns:xlink="http://www.w3.org/1999/xlink" x="0px"
	 y="0px" viewBox="0 0 32 32" style="enable-background:new 0 0 32 32;" xml:space="preserve">
<style type="text/css">
	.st0{fill:#666666;}
</style>
<path class="st0" d="M4.5,16c0-2.4,2-4.4,4.4-4.4h5.7V8.9H8.9c-4,0-7.1,3.1-7.1,7.1s3.1,7.1,7.1,7.1h5.7v-2.7H8.9
	C6.5,20.4,4.5,18.4,4.5,16z M10.3,17.4h11.3v-2.8H10.3V17.4z M23.1,8.9h-5.7v2.7h5.7c2.4,0,4.4,2,4.4,4.4s-2,4.4-4.4,4.4h-5.7v2.7
	h5.7c4,0,7.1-3.1,7.1-7.1S27.1,8.9,23.1,8.9z"/>
</svg>
