<?xml version="1.0" encoding="utf-8"?>
<!-- Generator: Adobe Illustrator 27.4.1, SVG Export Plug-In . SVG Version: 6.00 Build 0)  -->
<svg version="1.1" id="レイヤー_1" xmlns="http://www.w3.org/2000/svg" xmlns:xlink="http://www.w3.org/1999/xlink" x="0px"
	 y="0px" viewBox="0 0 76 24" style="enable-background:new 0 0 76 24;" xml:space="preserve">
<style type="text/css">
	.st0{fill:#666666;}
	.st1{fill:#333333;}
	.st2{fill:#C4C4C4;}
</style>
<path class="st0" d="M10.6,12c0-1.1,0.9-2.1,2.1-2.1h2.7V8.7h-2.7c-1.8,0-3.3,1.5-3.3,3.3s1.5,3.3,3.3,3.3h2.7v-1.3h-2.7
	C11.5,14.1,10.6,13.1,10.6,12z M13.3,12.7h5.3v-1.3h-5.3V12.7z M19.3,8.7h-2.7v1.3h2.7c1.1,0,2.1,0.9,2.1,2.1s-0.9,2.1-2.1,2.1h-2.7
	v1.3h2.7c1.8,0,3.3-1.5,3.3-3.3S21.2,8.7,19.3,8.7z"/>
<path class="st1" d="M40.6,16.4v0.7h1.6c0-0.3-0.1-0.6-0.1-1.2V9.3c0-0.6,0-0.7,0-1c-0.4,0-0.4,0-1,0h-5.8c-0.9,0-1.1,0-1.5-0.1v1.6
	c0.4,0,0.7-0.1,1.5-0.1h5.3V15h-5.5c-0.8,0-1.1,0-1.5-0.1v1.5c0.4,0,0.6,0,1.5,0H40.6z M47.5,8.9c0-0.6,0-0.8,0.1-1.1H46
	c0,0.3,0,0.5,0,1.1l0,5.6c0,0.7,0,0.9,0,1.1c0.1,0.6,0.3,1,0.6,1.2c0.5,0.4,1.3,0.5,2.8,0.5c0.7,0,2.2-0.1,3-0.1
	C53.7,17,53.8,17,54,17l-0.1-1.6c-0.5,0.2-0.8,0.2-1.4,0.3c-0.9,0.1-2,0.2-2.8,0.2c-1.2,0-1.8-0.1-2.1-0.3c-0.2-0.2-0.2-0.4-0.2-1.1
	c0,0,0-0.1,0-0.2v-1.6c2-0.4,3.9-1,5.6-1.9l0.3-0.2c0.1,0,0.1-0.1,0.3-0.1l-1-1.4c-0.8,0.7-3.4,1.8-5.2,2.1V8.9z M54.4,6.7
	c-0.8,0-1.4,0.6-1.4,1.4c0,0.8,0.6,1.4,1.4,1.4c0.8,0,1.4-0.6,1.4-1.4C55.8,7.4,55.2,6.7,54.4,6.7z M54.4,7.3c0.4,0,0.8,0.3,0.8,0.8
	c0,0.4-0.3,0.8-0.8,0.8c-0.4,0-0.8-0.4-0.8-0.8C53.7,7.7,54,7.3,54.4,7.3z M55.9,13.2c0.5-0.1,0.6-0.1,2-0.1h6.4c1.3,0,1.5,0,2,0.1
	v-1.7c-0.5,0.1-0.8,0.1-1.9,0.1h-6.4c-1.2,0-1.4,0-1.9-0.1V13.2z"/>
<path class="st2" d="M72,24H4c-2.2,0-4-1.8-4-4V4c0-2.2,1.8-4,4-4h68c2.2,0,4,1.8,4,4v16C76,22.2,74.2,24,72,24z M4,1
	C2.3,1,1,2.3,1,4v16c0,1.7,1.3,3,3,3h68c1.7,0,3-1.3,3-3V4c0-1.7-1.3-3-3-3H4z"/>
</svg>
