<svg xmlns="http://www.w3.org/2000/svg" xmlns:xlink="http://www.w3.org/1999/xlink" width="24" height="24" viewBox="0 0 24 24"><defs><style>.a{fill:none;}.b{clip-path:url(#a);}.c{fill:#999;}</style><clipPath id="a"><path class="a" d="M0,0H24V24H0Z" transform="translate(0 0)"/></clipPath></defs><path class="a" d="M0,0H24V24H0Z" transform="translate(0 0)"/><g class="b"><path class="c" d="M22.5,24H15a1.5,1.5,0,0,1-1.5-1.5v-3H1.5A1.5,1.5,0,0,1,0,18V1.5A1.5,1.5,0,0,1,1.5,0H15a1.5,1.5,0,0,1,1.5,1.5v6h6A1.5,1.5,0,0,1,24,9V22.5A1.5,1.5,0,0,1,22.5,24Zm-3.75-3a1.125,1.125,0,1,0,1.125,1.125A1.126,1.126,0,0,0,18.75,21ZM15,9.75v10.5h7.5V9.75ZM1.5,16.5V18H6V16.5Zm0-15V15h12V9A1.5,1.5,0,0,1,15,7.5v-6Z" transform="translate(0 0)"/></g></svg>