<?xml version="1.0" encoding="utf-8"?>
<!-- Generator: Adobe Illustrator 27.4.1, SVG Export Plug-In . SVG Version: 6.00 Build 0)  -->
<svg version="1.1" id="レイヤー_1" xmlns="http://www.w3.org/2000/svg" xmlns:xlink="http://www.w3.org/1999/xlink" x="0px"
	 y="0px" viewBox="0 0 76 24" style="enable-background:new 0 0 76 24;" xml:space="preserve">
<style type="text/css">
	.st0{fill:#1877F2;}
</style>
<path class="st0" d="M72,0H4C1.8,0,0,1.8,0,4v16c0,2.2,1.8,4,4,4h68c2.2,0,4-1.8,4-4V4C76,1.8,74.2,0,72,0z M35.1,7.5
	C36.3,8,37.3,8.4,38.3,9l-0.8,1.3c-1.1-0.7-2.2-1.3-3.2-1.7L35.1,7.5z M17,18.6v-4.7h1.6l0.3-1.9h0v0H17v-1.3c0-0.5,0.3-1,1.1-1H19
	V8.1c0,0,0,0-0.1,0c-0.2,0-0.8-0.1-1.4-0.1C16,7.9,15,8.9,15,10.5V12h-1.7v1.9h0v0H15v4.7c-3.2-0.5-5.6-3.3-5.6-6.6
	c0-3.7,3-6.7,6.7-6.7s6.7,3,6.7,6.7C22.7,15.3,20.2,18.1,17,18.6z M34.1,10.4c1.2,0.5,2.2,1,3.2,1.6l-0.7,1.4c-1-0.7-2-1.3-3.3-1.8
	L34.1,10.4z M41.4,13.8c-1.5,1.8-3.6,2.8-6.5,3.4c-0.4,0.1-0.6,0.1-0.8,0.2l-0.4-1.6c0.9,0,2.2-0.3,3.5-0.8c1.5-0.6,2.5-1.4,3.5-2.6
	c0.6-0.9,1-1.6,1.4-2.7c0.5,0.5,0.7,0.7,1.2,1.1C42.6,12.1,42.1,12.9,41.4,13.8z M54.2,17.2c-0.3,0-0.6,0-1.1,0h-6.2
	c-0.5,0-0.8,0-1.1,0v-1.3c0.3,0.1,0.6,0.1,1.1,0.1h2.4v-3.9h-1.6c-0.4,0-0.7,0-1.1,0.1v-1.4c0.3,0.1,0.6,0.1,1.1,0.1h4.7
	c0.5,0,0.8,0,1.1-0.1v1.4c-0.3,0-0.5,0-1.1,0h-1.7v3.9h2.4c0.6,0,0.8,0,1.1-0.1V17.2z M62.3,11.2c0,2.1-0.4,3.2-1.2,4.2
	c-0.7,0.9-1.6,1.5-3.1,2.2c-0.3-0.6-0.5-0.9-0.9-1.4c1-0.3,1.5-0.6,2.1-1c1.2-1,1.6-2,1.6-4.3c0-0.4,0-0.5-0.1-0.7h1.6
	C62.3,10.5,62.3,10.5,62.3,11.2z M66.8,9.6c-0.4,0.9-1.1,1.8-1.8,2.4c-0.5,0.4-0.9,0.7-1.4,1c-0.4-0.5-0.5-0.7-1.1-1.1
	c0.8-0.4,1.3-0.6,1.8-1.1c0.5-0.5,0.9-0.9,1.1-1.5H59c-0.8,0-1.1,0-1.6,0.1V7.8c0.5,0.1,0.8,0.1,1.7,0.1h6.3c0.7,0,0.8,0,1.2-0.1
	l0.8,0.9C67.1,8.9,67.1,8.9,66.8,9.6z"/>
</svg>
