<svg xmlns="http://www.w3.org/2000/svg" viewBox="0 0 194.2 194.3"><path d="M194.2 97.1C194.2 43.5 150.7 0 97.1 0S0 43.5 0 97.1c0 48.5 35.5 88.7 82 95.9v-67.9H57.2v-28H82V75.7c0-24.3 14.4-37.8 36.6-37.8 10.6 0 21.6 2 21.6 2v23.7H128c-12.1 0-15.9 7.6-15.9 15.2V97h27l-4.3 28h-22.7v67.9c46.6-7.1 82.1-47.3 82.1-95.8z" fill="#1877f2"/><path d="M134.9 125.2l4.3-28h-27V79c0-7.7 3.9-15.2 15.9-15.2h12.2V40s-11-2-21.6-2c-22.2 0-36.6 13.5-36.6 37.8v21.4H57.3v28h24.8v67.9c4.9.8 10 1.2 15.1 1.2s10.2-.4 15.1-1.2v-67.9h22.6z" fill="#fff"/></svg>