<svg xmlns="http://www.w3.org/2000/svg" xml:space="preserve" id="レイヤー_1" x="0" y="0" style="enable-background:new 0 0 98.7 98.7" version="1.1" viewBox="0 0 98.7 98.7"><style>.st1{fill:#fff}</style><path d="M78.6 98.7H20.1C9 98.7 0 89.7 0 78.6V20.1C0 9 9 0 20.1 0h58.5c11.1 0 20.1 9 20.1 20.1v58.5c0 11.1-9 20.1-20.1 20.1z" style="fill:#1999cd"/><path d="M54.9 50.9c-1.8-2-4.3-3.1-7.5-3.4 2.8-.8 4.9-1.9 6.2-3.4 1.3-1.5 1.9-3.5 1.9-6.1 0-2-.4-3.8-1.3-5.3s-2.1-2.8-3.8-3.7c-1.4-.8-3.2-1.4-5.2-1.7-2-.3-5.5-.5-10.6-.5H22.4v44.9h12.7c5.1 0 8.8-.2 11-.5 2.2-.4 4.1-.9 5.6-1.8 1.9-1 3.3-2.4 4.3-4.2 1-1.8 1.5-3.9 1.5-6.3.1-3.3-.8-6-2.6-8zm-21.1-14h2.6c3 0 5.1.3 6.1 1s1.6 1.9 1.6 3.6c0 1.6-.6 2.8-1.7 3.4-1.1.7-3.2 1-6.2 1h-2.4v-9zm10.4 25.7c-1.2.7-3.3 1.1-6.1 1.1h-4.3v-9.8h4.5c3 0 5 .4 6.1 1.1 1.1.7 1.7 2.1 1.7 4-.1 1.6-.7 2.9-1.9 3.6zM70.6 60.4c-3.1 0-5.7 2.5-5.7 5.7 0 3.1 2.5 5.7 5.7 5.7 3.1 0 5.7-2.5 5.7-5.7s-2.6-5.7-5.7-5.7zM65.6 26.9h9.9v29.9h-9.9z" class="st1"/></svg>