<?xml version="1.0" encoding="utf-8"?>
<!-- Generator: Adobe Illustrator 26.3.1, SVG Export Plug-In . SVG Version: 6.00 Build 0)  -->
<svg version="1.1" id="レイヤー_1" xmlns="http://www.w3.org/2000/svg" xmlns:xlink="http://www.w3.org/1999/xlink" x="0px"
	 y="0px" viewBox="0 0 16 16" style="enable-background:new 0 0 16 16;" xml:space="preserve">
<style type="text/css">
	.st0{fill:#DBB400;}
	.st1{fill:#FFFFFF;}
</style>
<path class="st0" d="M15.4,16H0.6C0.3,16,0,15.7,0,15.4V0.6C0,0.3,0.3,0,0.6,0h14.8C15.7,0,16,0.3,16,0.6c0,0,0,0,0,0v14.8
	C16,15.7,15.7,16,15.4,16L15.4,16"/>
<path class="st1" d="M11.7,7.5H4.3c-0.5,0-0.8,0.4-0.8,0.8v4.9c0,0.8,0.6,1.4,1.4,1.4l0,0h6.2c0.8,0,1.4-0.6,1.4-1.4c0,0,0,0,0,0
	V8.3C12.6,7.9,12.2,7.5,11.7,7.5z M9.1,12.8c0,0.1,0,0.3-0.2,0.3c0,0,0,0,0,0H7.2c-0.1,0-0.2-0.1-0.2-0.2c0,0,0,0,0-0.1l0.4-1.7
	C6.8,10.7,6.7,10,7.1,9.5s1.1-0.6,1.6-0.3s0.6,1.1,0.3,1.6c0,0,0,0,0,0c-0.1,0.1-0.2,0.2-0.3,0.3L9.1,12.8z M11.7,6.9h-1.6V5.1
	c0-1.2-1-2.2-2.2-2.2s-2.2,1-2.2,2.2v1.9H4.2V5.1c0-2.1,1.7-3.8,3.8-3.8s3.8,1.7,3.8,3.8c0,0,0,0,0,0L11.7,6.9z"/>
</svg>
