<svg xmlns="http://www.w3.org/2000/svg" xml:space="preserve" id="レイヤー_1" x="0" y="0" version="1.1" viewBox="0 0 320 320"><style>.st0{fill:#06c755}</style><circle cx="160" cy="160" r="160" class="st0"/><path d="M266.7 150.7c0-47.8-47.9-86.7-106.8-86.7S53.1 102.9 53.1 150.7c0 42.8 38 78.7 89.3 85.5 3.5.8 8.2 2.3 9.4 5.3 1.1 2.7.7 6.9.3 9.7 0 0-1.3 7.5-1.5 9.1-.5 2.7-2.1 10.6 9.3 5.8s61.5-36.2 83.9-62c15.5-17.1 22.9-34.3 22.9-53.4z" fill="#fff"/><path d="M231.2 178.3c1.1 0 2-.9 2-2v-7.6c0-1.1-.9-2-2-2h-20.4v-7.9h20.4c1.1 0 2-.9 2-2v-7.6c0-1.1-.9-2-2-2h-20.4v-7.9h20.4c1.1 0 2-.9 2-2v-7.6c0-1.1-.9-2-2-2h-30c-1.1 0-2 .9-2 2v46.5c0 1.1.9 2 2 2h30v.1zm-111 0c1.1 0 2-.9 2-2v-7.6c0-1.1-.9-2-2-2H99.8v-37c0-1.1-.9-2-2-2h-7.6c-1.1 0-2 .9-2 2v46.6c0 1.1.9 2 2 2h30zm18-50.7h-7.6c-1.1 0-2 .9-2 2v46.6c0 1.1.9 2 2 2h7.6c1.1 0 2-.9 2-2v-46.6c.1-1.1-.8-2-2-2zm51.6 0h-7.6c-1.1 0-2 .9-2 2v27.7l-21.3-28.8c0-.1-.1-.1-.2-.2l-.1-.1-.1-.1h-.1l-.1-.1h-.1s-.1 0-.1-.1h-.1s-.1 0-.1-.1h-8.3c-1.1 0-2 .9-2 2v46.6c0 1.1.9 2 2 2h7.6c1.1 0 2-.9 2-2v-27.7l21.4 28.8c.1.2.3.4.5.5l.1.1h.5c.2 0 .3.1.5.1h7.5c1.1 0 2-.9 2-2v-46.6c.1-1.1-.8-2-1.9-2z" class="st0"/></svg>