<svg width="24" height="24" viewBox="0 0 32 32" xmlns="http://www.w3.org/2000/svg">
    <path data-name="Clip 2" d="M0 0h32v32H0z" fill="none"></path>
    <g data-name="Group 3">
        <path data-name="Fill 1" d="M16 32A16 16 0 014.69 4.69 16 16 0 0127.3 27.3 15.9 15.9 0 0116 32zm0-14.02a7.42 7.42 0 00-6.93 5.51 2 2 0 00.32 1.78 2.1 2.1 0 001.68.86h9.85a2.1 2.1 0 001.7-.86 2 2 0 00.3-1.78A7.42 7.42 0 0016 17.98zm0-11.35a4.38 4.38 0 104.38 4.38A4.39 4.39 0 0016 6.63z" fill="#06517b"></path>
    </g>
</svg>