<svg xmlns="http://www.w3.org/2000/svg" xml:space="preserve" viewBox="0 0 88 24">
  <path d="m16.5 11.7 3.3 4.7h-1.4l-2.7-3.8-.4-.6-3.1-4.5h1.4l2.5 3.6.4.6zM88 4v16c0 2.2-1.8 4-4 4H4c-2.2 0-4-1.8-4-4V4c0-2.2 1.8-4 4-4h80c2.2 0 4 1.8 4 4zM21 17.1l-4-5.9 3.7-4.3h-.9l-3.2 3.8L14 6.9h-3l3.9 5.7-3.9 4.5h.9l3.4-4 2.7 4h3zm13.2-1c.7-.8 1.9-2.5 2.5-3.6l-1.2-.6c-.6 1.1-1.6 2.6-2.5 3.4l1.2.8zm5.4-5.5H44V9.2c-.4.1-.9.1-1.2.1h-3.3V8.1c0-.3.1-.8.1-1h-1.5c0 .2.1.7.1 1v1.3h-3.5c-.4 0-.8-.1-1.2-.1v1.2h4.7v5.6c0 .4-.2.5-.5.5-.4 0-.9 0-1.5-.1l.1 1.3c.6.1 1.4.1 2 .1.8 0 1.2-.4 1.2-1.1h.1v-6.2zm4.7 4.7c-.5-.9-1.5-2.6-2.2-3.4l-1.1.6c.7.8 1.7 2.4 2.2 3.5l1.1-.7zm.2-7.8c0-.9-.7-1.5-1.5-1.5s-1.5.6-1.5 1.5S42.2 9 43 9s1.5-.6 1.5-1.5zm12.8 9.2c-.8-1-2.4-2.7-3.7-3.8.9-1.2 1.6-2.6 2.1-3.7.1-.2.3-.6.4-.7l-.8-.6c-.2 0-.6.1-1.1.1h-4.8c-.4 0-1.2 0-1.5-.1v1.5c.2 0 .9-.1 1.4-.1h4.8c-.3 1-1.2 2.4-2.1 3.4-1.2 1.4-3.2 3-5.3 3.8l1.1 1.1c1.9-.8 3.6-2.2 5-3.7 1.3 1.2 2.6 2.6 3.4 3.8l1.1-1zm10.8-4.1c-1.3-.7-3.8-1.6-5.5-2.1v-2c0-.5.1-1.1.1-1.5h-1.6c.1.5.1 1.1.1 1.5v7.6c0 .5 0 1.2-.1 1.7h1.6c-.1-.5-.1-1.3-.1-1.7v-4c1.4.4 3.5 1.3 4.9 2l.6-1.5zM43 6.8c-.4 0-.8.4-.8.8s.3.8.8.8.8-.3.8-.8-.3-.8-.8-.8z"/>
</svg>
