<svg xmlns="http://www.w3.org/2000/svg" xml:space="preserve" viewBox="0 0 88 24">
  <path d="m16.9 11.2 3.7-4.3h-.9l-3.2 3.7L14 6.9h-3l3.9 5.7-3.9 4.5h.9l3.4-4 2.7 4h3l-4.1-5.9zm-1.2 1.4-.4-.6-3.1-4.5h1.4l2.5 3.6.4.6 3.3 4.7h-1.4l-2.7-3.8z"/>
  <path fill="#c4c4c4" d="M84 24H4c-2.2 0-4-1.8-4-4V4c0-2.2 1.8-4 4-4h80c2.2 0 4 1.8 4 4v16c0 2.2-1.8 4-4 4zM4 1C2.3 1 1 2.3 1 4v16c0 1.7 1.3 3 3 3h80c1.7 0 3-1.3 3-3V4c0-1.7-1.3-3-3-3H4z"/>
  <path fill="#333" d="M36.6 12.5c-.6 1.1-1.8 2.8-2.5 3.6l-1.1-.8c.9-.8 1.9-2.3 2.5-3.4l1.1.6zm2.9-1.9v6.2c0 .7-.4 1.1-1.2 1.1-.6 0-1.4 0-2-.1l-.1-1.3c.6.1 1.1.1 1.5.1.3 0 .5-.1.5-.5v-5.6h-4.7V9.3c.4 0 .8.1 1.2.1h3.5V8.1c0-.3-.1-.8-.1-1h1.5c0 .2-.1.7-.1 1v1.2h3.3c.3 0 .8 0 1.2-.1v1.4h-4.5zm2.6 1.4c.7.8 1.7 2.5 2.2 3.4l-1.1.6c-.5-1.1-1.5-2.7-2.2-3.5l1.1-.5zm-.5-4.4c0-.8.7-1.5 1.5-1.5s1.5.6 1.5 1.5S43.8 9 43 9s-1.4-.6-1.4-1.4zm.7 0c0 .4.3.8.8.8s.8-.3.8-.8c0-.4-.4-.8-.8-.8s-.8.3-.8.8zm13.9.9c-.1.1-.3.5-.4.7-.5 1.1-1.2 2.5-2.1 3.7 1.3 1.1 2.9 2.8 3.7 3.8l-1.2 1c-.8-1.2-2.1-2.6-3.4-3.8-1.4 1.5-3.1 2.9-5 3.7l-1.1-1.1c2.1-.8 4.1-2.4 5.3-3.8.9-1 1.8-2.4 2.1-3.4h-4.8c-.5 0-1.2.1-1.4.1V7.9c.3.1 1.1.1 1.5.1h4.8c.5 0 .9-.1 1.1-.1l.9.6zm11.3 5.6c-1.4-.7-3.5-1.6-4.9-2v4c0 .4 0 1.2.1 1.7h-1.6c.1-.5.1-1.2.1-1.7V8.5c0-.4 0-1-.1-1.5h1.6c0 .4-.1 1-.1 1.5v2c1.7.5 4.2 1.4 5.5 2.1l-.6 1.5z"/>
</svg>
