<svg xmlns="http://www.w3.org/2000/svg" xmlns:xlink="http://www.w3.org/1999/xlink" width="48" height="48" viewBox="0 0 48 48"><defs><style>.a{fill:none;}.b{fill:red;}.c{clip-path:url(#a);}.d{fill:#fff;}</style><clipPath id="a"><path class="a" d="M0,0H23.868V16.637H0Z" transform="translate(0 0)"/></clipPath></defs><circle class="b" cx="24" cy="24" r="24"/><g transform="translate(12 12)"><rect class="a" width="24" height="24"/><g transform="translate(0 3.75)"><path class="a" d="M0,0H23.868V16.637H0Z" transform="translate(0 0)"/><g class="c"><path class="d" d="M12.507,16.638H11.359A75.313,75.313,0,0,1,3,16.306,3.018,3.018,0,0,1,.416,13.962,25.454,25.454,0,0,1,0,8.32,25.719,25.719,0,0,1,.42,2.677,3.015,3.015,0,0,1,3,.333,75.775,75.775,0,0,1,11.517,0h.842a75.763,75.763,0,0,1,8.517.333,3.014,3.014,0,0,1,2.58,2.345,25.357,25.357,0,0,1,.412,5.607V8.32a25.453,25.453,0,0,1-.417,5.641,3.019,3.019,0,0,1-2.58,2.345A75.339,75.339,0,0,1,12.507,16.638ZM9.628,4.7v7.238l6.156-3.619Z" transform="translate(0 0)"/></g></g></g></svg>