<svg xmlns="http://www.w3.org/2000/svg" xmlns:xlink="http://www.w3.org/1999/xlink" width="24" height="23.878" viewBox="0 0 24 23.878"><defs><style>.a{fill:none;}.b{clip-path:url(#a);}.c{fill:#999;}</style><clipPath id="a"><path class="a" d="M0,0H24V23.878H0Z" transform="translate(0 0)"/></clipPath></defs><path class="a" d="M0,0H24V23.878H0Z" transform="translate(0 0)"/><g class="b"><path class="c" d="M12,23.878a1.48,1.48,0,0,1-.524-.1,19.689,19.689,0,0,0-6.668-.906A19.246,19.246,0,0,0,0,23.357V.482C.844.378,1.443.292,1.924.224A16.057,16.057,0,0,1,4.808,0a18.9,18.9,0,0,1,6.645.942,1.5,1.5,0,0,0,.548.1,1.5,1.5,0,0,0,.548-.1A18.892,18.892,0,0,1,19.19,0a16.069,16.069,0,0,1,2.885.224c.482.069,1.081.154,1.925.259V23.357a19.442,19.442,0,0,0-4.809-.482,19.685,19.685,0,0,0-6.667.906A1.48,1.48,0,0,1,12,23.878ZM3.731,20.149c.529,0,1.077.011,1.629.033A34.809,34.809,0,0,1,12,21V19.657A25.884,25.884,0,0,0,5.361,18.7c-.447-.018-.8-.027-1.108-.027-.668,0-1.137.038-1.99.108H2.249c-.225.019-.472.04-.749.061V20.22C2.208,20.173,2.958,20.149,3.731,20.149ZM19.19,15.944a18.949,18.949,0,0,0-5.69.694V17.98a25.359,25.359,0,0,1,5.692-.552,27.018,27.018,0,0,1,3.308.192V16.242c-.242-.032-.458-.063-.642-.09A14.753,14.753,0,0,0,19.19,15.944ZM3.728,17.064c.53,0,1.079.011,1.632.033a34.731,34.731,0,0,1,6.64.817V16.572a25.943,25.943,0,0,0-6.638-.959c-.444-.018-.793-.026-1.1-.026-.674,0-1.147.039-2.005.11H2.249l-.749.06v1.377C2.209,17.087,2.958,17.064,3.728,17.064Zm1.08-3.01a21.222,21.222,0,0,1,7.192,1V2.927C11.464,2.5,9.692,1.5,4.81,1.5a14.806,14.806,0,0,0-2.662.206H2.141c-.192.028-.4.059-.641.091V14.245A27.023,27.023,0,0,1,4.808,14.054ZM19.19,12.944a18.949,18.949,0,0,0-5.69.694v1.343a25.359,25.359,0,0,1,5.692-.552,27.028,27.028,0,0,1,3.308.191V13.243c-.238-.032-.45-.063-.642-.091l-.025,0A14.694,14.694,0,0,0,19.19,12.944Zm0-3a18.949,18.949,0,0,0-5.69.694v1.343a25.3,25.3,0,0,1,5.692-.553,27.018,27.018,0,0,1,3.308.192V10.243c-.238-.032-.45-.063-.642-.091l-.025,0A14.694,14.694,0,0,0,19.19,9.944Zm0-8.444a18.956,18.956,0,0,0-5.69.693v6.79a25.256,25.256,0,0,1,5.692-.553,27.028,27.028,0,0,1,3.308.191V1.8c-.238-.032-.45-.063-.642-.091A14.736,14.736,0,0,0,19.19,1.5Z" transform="translate(0 0)"/></g></svg>